HIERARCHY
ROOT joint_Root
{
	OFFSET 0.0 0.0 0.0
	CHANNELS 6 Xposition Yposition Zposition Zrotation Xrotation Yrotation 
	JOINT Hips
	{
		OFFSET 4.5925 91.4895 -427.239
		CHANNELS 6 Xposition Yposition Zposition Zrotation Xrotation Yrotation 
		JOINT Spine
		{
			OFFSET 15.7357 0.0 0.0
			CHANNELS 6 Xposition Yposition Zposition Zrotation Xrotation Yrotation 
			JOINT Chest
			{
				OFFSET 8.98455 -0.406207 0.0
				CHANNELS 6 Xposition Yposition Zposition Zrotation Xrotation Yrotation 
				JOINT Neck
				{
					OFFSET 16.3773 0.0 0.0
					CHANNELS 6 Xposition Yposition Zposition Zrotation Xrotation Yrotation 
					JOINT Head
					{
						OFFSET 6.45672 0.0 0.0
						CHANNELS 6 Xposition Yposition Zposition Zrotation Xrotation Yrotation 
						End Site
						{
							OFFSET 0.0 0.0 0.0
						}
					}
				}
				JOINT Shoulder_L
				{
					OFFSET 12.9942 -0.242716 4.98039
					CHANNELS 6 Xposition Yposition Zposition Zrotation Xrotation Yrotation 
					JOINT UpperArm_L
					{
						OFFSET 5.34809 0.0 0.0
						CHANNELS 6 Xposition Yposition Zposition Zrotation Xrotation Yrotation 
						JOINT LowerArm_L
						{
							OFFSET 24.3286 1.87007e-05 0.0
							CHANNELS 6 Xposition Yposition Zposition Zrotation Xrotation Yrotation 
							JOINT Hand_L
							{
								OFFSET 22.2916 0.0 0.0
								CHANNELS 6 Xposition Yposition Zposition Zrotation Xrotation Yrotation 
								End Site
								{
									OFFSET 0.0 0.0 0.0
								}
							}
						}
					}
				}
				JOINT Shoulder_R
				{
					OFFSET 12.9945 -0.242716 -4.98039
					CHANNELS 6 Xposition Yposition Zposition Zrotation Xrotation Yrotation 
					JOINT UpperArm_R
					{
						OFFSET -5.34813 0.0 0.0
						CHANNELS 6 Xposition Yposition Zposition Zrotation Xrotation Yrotation 
						JOINT LowerArm_R
						{
							OFFSET -24.3289 0.000322201 0.0
							CHANNELS 6 Xposition Yposition Zposition Zrotation Xrotation Yrotation 
							JOINT Hand_R
							{
								OFFSET -22.2915 -0.000108084 0.0
								CHANNELS 6 Xposition Yposition Zposition Zrotation Xrotation Yrotation 
								End Site
								{
									OFFSET 0.0 0.0 0.0
								}
							}
						}
					}
				}
			}
		}
		JOINT UpperLeg_L
		{
			OFFSET -2.19248 -6.46944 0.0
			CHANNELS 6 Xposition Yposition Zposition Zrotation Xrotation Yrotation 
			JOINT LowerLeg_L
			{
				OFFSET 39.0811 0.0 -1.23785e-05
				CHANNELS 6 Xposition Yposition Zposition Zrotation Xrotation Yrotation 
				JOINT Foot_L
				{
					OFFSET 40.9854 0.0 -1.26872e-05
					CHANNELS 6 Xposition Yposition Zposition Zrotation Xrotation Yrotation 
					JOINT Toes_L
					{
						OFFSET 11.7543 0.0 0.0
						CHANNELS 6 Xposition Yposition Zposition Zrotation Xrotation Yrotation 
						End Site
						{
							OFFSET 0.0 0.0 0.0
						}
					}
				}
			}
		}
		JOINT UpperLeg_R
		{
			OFFSET -2.19251 6.46944 0.0
			CHANNELS 6 Xposition Yposition Zposition Zrotation Xrotation Yrotation 
			JOINT LowerLeg_R
			{
				OFFSET -39.0811 -0.00228153 -0.0401928
				CHANNELS 6 Xposition Yposition Zposition Zrotation Xrotation Yrotation 
				JOINT Foot_R
				{
					OFFSET -40.9854 0.0 0.0
					CHANNELS 6 Xposition Yposition Zposition Zrotation Xrotation Yrotation 
					JOINT Toes_R
					{
						OFFSET -11.7543 0.0 0.0
						CHANNELS 6 Xposition Yposition Zposition Zrotation Xrotation Yrotation 
						End Site
						{
							OFFSET 0.0 0.0 0.0
						}
					}
				}
			}
		}
	}
}
MOTION
Frames:	7
Frame Time:	0.0333333
0.000000 0.000000 0.000000 0.000000 0.000000 -0.000000 5.441590 89.691900 -0.240729 95.816400 -4.786140 12.263000 15.735700 0.000005 -0.000001 83.161800 82.885800 -84.745300 8.984550 -0.406207 -0.000000 6.342070 -1.669510 -3.071100 16.377300 -0.000001 -0.000001 15.310300 -3.812550 2.280660 6.456720 -0.000001 -0.000000 6.137190 -3.149420 2.940610 12.994200 -0.242716 4.980390 -91.713200 5.623070 -73.025300 5.348090 -0.000007 -0.000001 -62.574000 38.937000 -15.395500 24.328600 0.000019 0.000005 8.437640 22.910200 -20.859200 22.291600 -0.000001 0.000005 5.447940 5.280360 0.616072 12.994500 -0.242716 -4.980390 88.241100 9.857190 -79.830800 -5.348130 -0.000001 -0.000004 -63.364100 32.041400 -8.508940 -24.328900 0.000322 -0.000009 2.164930 6.084290 -19.638400 -22.291500 -0.000108 -0.000004 11.276600 5.368710 -1.946390 -2.192480 -6.469440 -0.000000 174.883000 -14.379500 0.673851 39.081100 -0.000007 -0.000012 -0.039477 0.062362 32.335600 40.985400 -0.000006 -0.000013 3.943640 1.860340 -71.889200 11.754300 -0.000000 0.000003 -0.000165 -0.001578 -16.637400 -2.192510 6.469440 -0.000001 165.275000 12.895600 177.256000 -39.081100 -0.002282 -0.040193 0.031990 -0.035786 38.736900 -40.985400 0.000008 0.000006 2.432200 8.277600 -73.637700 -11.754300 -0.000006 -0.000006 -0.004835 -0.059862 -19.008600
0.000000 0.000000 0.000000 0.000000 0.000000 -0.000000 5.282560 89.690700 -0.169232 95.792000 -4.657740 12.228500 15.735700 0.000005 -0.000001 82.869000 82.898700 -84.439800 8.984550 -0.406207 -0.000000 6.306950 -1.737990 -3.042460 16.377300 -0.000001 -0.000001 15.138000 -3.864550 2.380850 6.456720 -0.000001 -0.000000 6.209530 -3.120180 2.833980 12.994200 -0.242716 4.980390 -91.724600 5.650850 -72.997700 5.348090 -0.000007 -0.000001 -61.576700 36.581200 -15.911000 24.328600 0.000019 0.000005 8.338160 22.428500 -21.014100 22.291600 -0.000001 0.000005 4.503090 5.293460 0.253148 12.994500 -0.242716 -4.980390 88.224600 9.763780 -79.642200 -5.348130 -0.000001 -0.000004 -62.526900 31.082500 -8.905370 -24.328900 0.000322 -0.000009 2.131550 5.797420 -20.236400 -22.291500 -0.000108 -0.000004 10.638600 5.369500 -1.970920 -2.192480 -6.469440 -0.000000 175.007000 -14.252800 0.689166 39.081100 -0.000007 -0.000012 -0.042487 0.067024 32.371300 40.985400 -0.000006 -0.000013 3.835210 1.913300 -71.933400 11.754300 -0.000000 0.000003 -0.000150 -0.001454 -16.632800 -2.192510 6.469440 -0.000001 165.426000 12.870100 177.319000 -39.081100 -0.002282 -0.040193 0.033195 -0.037257 38.760800 -40.985400 0.000008 0.000006 2.541170 8.057900 -73.751600 -11.754300 -0.000006 -0.000006 -0.004678 -0.058313 -18.945500
0.000000 0.000000 0.000000 0.000000 0.000000 -0.000000 5.114850 89.697100 -0.079038 95.791800 -4.470640 12.271800 15.735700 0.000005 -0.000001 82.705700 82.893500 -84.274100 8.984550 -0.406207 -0.000000 6.311860 -1.779460 -3.035430 16.377300 -0.000001 -0.000001 15.097200 -3.981490 2.407890 6.456720 -0.000001 -0.000000 6.301130 -3.218890 2.853440 12.994200 -0.242716 4.980390 -91.740000 5.700670 -72.995200 5.348090 -0.000007 -0.000001 -59.836900 33.811900 -17.372300 24.328600 0.000019 0.000005 8.745410 22.628900 -21.791800 22.291600 -0.000001 0.000005 3.343130 5.309260 -0.189748 12.994500 -0.242716 -4.980390 88.198300 9.697810 -79.422900 -5.348130 -0.000001 -0.000004 -61.224500 29.796600 -9.860110 -24.328900 0.000322 -0.000009 2.445800 6.242360 -21.454600 -22.291500 -0.000108 -0.000004 9.920480 5.362080 -1.742380 -2.192480 -6.469440 -0.000000 175.141000 -14.154800 0.837360 39.081100 -0.000007 -0.000012 -0.047460 0.074958 32.340800 40.985400 -0.000006 -0.000013 3.750030 2.050660 -71.960800 11.754300 -0.000000 0.000003 -0.000157 -0.001510 -16.634900 -2.192510 6.469440 -0.000001 165.502000 12.950500 177.523000 -39.081100 -0.002282 -0.040193 0.034980 -0.039515 38.736000 -40.985400 0.000008 0.000006 2.699970 7.860230 -73.895400 -11.754300 -0.000006 -0.000006 -0.004775 -0.059276 -18.984700
0.000000 0.000000 0.000000 0.000000 0.000000 -0.000000 4.961250 89.698200 -0.048596 95.741200 -4.276540 12.312200 15.735700 0.000005 -0.000001 82.591700 82.917600 -84.131600 8.984550 -0.406207 -0.000000 6.260470 -1.800950 -2.978010 16.377300 -0.000001 -0.000001 15.248600 -4.113800 2.467260 6.456720 -0.000001 -0.000000 6.458370 -3.306460 2.770150 12.994200 -0.242716 4.980390 -91.727600 5.685920 -73.068400 5.348090 -0.000007 -0.000001 -57.547600 30.920800 -19.550200 24.328600 0.000019 0.000005 9.064630 21.917200 -23.143100 22.291600 -0.000001 0.000005 3.119440 5.316840 -0.404688 12.994500 -0.242716 -4.980390 88.202000 9.517510 -79.250600 -5.348130 -0.000001 -0.000004 -59.355500 28.790300 -11.564600 -24.328900 0.000322 -0.000009 2.594290 6.121280 -23.030500 -22.291500 -0.000108 -0.000004 9.731860 5.361580 -1.727700 -2.192480 -6.469440 -0.000000 175.309000 -14.019700 0.897137 39.081100 -0.000007 -0.000012 -0.050533 0.079645 32.394600 40.985400 -0.000006 -0.000013 3.662790 2.161860 -71.984000 11.754300 -0.000000 0.000003 -0.000152 -0.001469 -16.633400 -2.192510 6.469440 -0.000001 165.620000 13.054300 177.660000 -39.081100 -0.002282 -0.040193 0.033939 -0.038221 38.733200 -40.985400 0.000008 0.000006 2.682560 7.751820 -73.931400 -11.754300 -0.000006 -0.000006 -0.004391 -0.055448 -18.828800
0.000000 0.000000 0.000000 0.000000 0.000000 -0.000000 4.797270 89.700200 -0.015513 95.717200 -4.103850 12.417200 15.735700 0.000005 -0.000001 82.461500 82.950700 -83.986100 8.984550 -0.406207 -0.000000 6.190760 -1.823500 -2.947300 16.377300 -0.000001 -0.000001 15.561500 -4.209510 2.486500 6.456720 -0.000001 -0.000000 6.692270 -3.388300 2.753750 12.994200 -0.242716 4.980390 -91.683100 5.566360 -73.146700 5.348090 -0.000007 -0.000001 -54.919100 27.718900 -22.360300 24.328600 0.000019 0.000005 9.552310 21.174300 -24.980700 22.291600 -0.000001 0.000005 3.504250 5.321260 -0.531661 12.994500 -0.242716 -4.980390 88.233600 9.273470 -79.166200 -5.348130 -0.000001 -0.000004 -57.163300 27.265000 -13.912300 -24.328900 0.000322 -0.000009 2.798100 6.032550 -24.950900 -22.291500 -0.000108 -0.000004 9.631340 5.365190 -1.838470 -2.192480 -6.469440 -0.000000 175.469000 -13.890600 1.042390 39.081100 -0.000007 -0.000012 -0.057383 0.090358 32.418200 40.985400 -0.000006 -0.000013 3.560610 2.238430 -72.000000 11.754300 -0.000000 0.000003 -0.000158 -0.001520 -16.635300 -2.192510 6.469440 -0.000001 165.703000 13.137800 177.861000 -39.081100 -0.002282 -0.040193 0.035551 -0.040223 38.738600 -40.985400 0.000008 0.000006 2.851010 7.616750 -74.031400 -11.754300 -0.000006 -0.000006 -0.004316 -0.054683 -18.797600
0.000000 0.000000 0.000000 0.000000 0.000000 -0.000000 4.637760 89.705500 -0.001440 95.671900 -3.960170 12.574000 15.735700 0.000005 -0.000001 82.467400 82.991100 -83.958800 8.984550 -0.406207 -0.000000 6.111340 -1.811040 -2.882970 16.377300 -0.000001 -0.000001 15.941200 -4.232070 2.537150 6.456720 -0.000001 -0.000000 7.007840 -3.461700 2.645290 12.994200 -0.242716 4.980390 -91.612500 5.376780 -73.278500 5.348090 -0.000007 -0.000001 -52.251700 24.083800 -25.601700 24.328600 0.000019 0.000005 10.088300 20.313000 -27.135600 22.291600 -0.000001 0.000005 4.226740 5.322870 -0.578027 12.994500 -0.242716 -4.980390 88.279500 8.918220 -79.034400 -5.348130 -0.000001 -0.000004 -54.708000 25.416800 -16.905000 -24.328900 0.000322 -0.000009 2.717600 5.319720 -27.121900 -22.291500 -0.000108 -0.000004 9.952990 5.364500 -1.817170 -2.192480 -6.469440 -0.000000 175.665000 -13.808100 1.223610 39.081100 -0.000007 -0.000012 -0.060635 0.095389 32.442700 40.985400 -0.000006 -0.000013 3.472830 2.342680 -72.002700 11.754300 -0.000000 0.000003 -0.000150 -0.001454 -16.632800 -2.192510 6.469440 -0.000001 165.804000 13.209600 178.115000 -39.081100 -0.002282 -0.040193 0.035657 -0.040400 38.706800 -40.985400 0.000008 0.000006 2.934030 7.499990 -74.097900 -11.754300 -0.000006 -0.000006 -0.004022 -0.051671 -18.675000
0.000000 0.000000 0.000000 0.000000 0.000000 -0.000000 4.471320 89.709500 0.003330 95.609400 -3.897530 12.728800 15.735700 0.000005 -0.000001 82.446000 83.063700 -83.902600 8.984550 -0.406207 -0.000000 5.967350 -1.796030 -2.816360 16.377300 -0.000001 -0.000001 16.322900 -4.260710 2.578240 6.456720 -0.000001 -0.000000 7.583730 -3.462200 2.524410 12.994200 -0.242716 4.980390 -91.494100 5.043040 -73.473700 5.348090 -0.000007 -0.000001 -49.881200 19.857300 -28.964200 24.328600 0.000019 0.000005 10.739300 19.495300 -29.610000 22.291600 -0.000001 0.000005 4.466690 5.321230 -0.531247 12.994500 -0.242716 -4.980390 88.366600 8.467920 -79.040300 -5.348130 -0.000001 -0.000004 -52.263600 22.984900 -20.303200 -24.328900 0.000322 -0.000009 2.591320 4.596930 -29.465700 -22.291500 -0.000108 -0.000004 10.086700 5.367110 -1.897390 -2.192480 -6.469440 -0.000000 175.873000 -13.689800 1.386860 39.081100 -0.000007 -0.000012 -0.066190 0.103964 32.483800 40.985400 -0.000006 -0.000013 3.353700 2.374530 -72.010700 11.754300 -0.000000 0.000003 -0.000154 -0.001489 -16.634100 -2.192510 6.469440 -0.000001 165.913000 13.296500 178.354000 -39.081100 -0.002282 -0.040193 0.034961 -0.039610 38.652100 -40.985400 0.000008 0.000006 2.983030 7.504180 -74.160500 -11.754300 -0.000006 -0.000006 -0.003932 -0.050729 -18.636600
